solid OpenSCAD_Model
  facet normal -1 0 0
    outer loop
      vertex -4.25 -4.25 0
      vertex -4.25 -2.5 1
      vertex -4.25 -2.5 0
    endloop
  endfacet
  facet normal -1 -0 0
    outer loop
      vertex -4.25 -2.5 1
      vertex -4.25 -4.25 0
      vertex -4.25 -4.25 1
    endloop
  endfacet
  facet normal -1 0 0
    outer loop
      vertex -4.25 2.5 0
      vertex -4.25 4.25 1
      vertex -4.25 4.25 0
    endloop
  endfacet
  facet normal -1 -0 0
    outer loop
      vertex -4.25 4.25 1
      vertex -4.25 2.5 0
      vertex -4.25 2.5 1
    endloop
  endfacet
  facet normal 0 0 1
    outer loop
      vertex -3.25 -2.5 1
      vertex -4.25 -2.5 1
      vertex -3.25 -3.25 1
    endloop
  endfacet
  facet normal 0 0 1
    outer loop
      vertex 4.25 4.25 1
      vertex 3.25 3.25 1
      vertex 4.25 -4.25 1
    endloop
  endfacet
  facet normal 0 0 1
    outer loop
      vertex 4.25 4.25 1
      vertex -3.25 3.25 1
      vertex 3.25 3.25 1
    endloop
  endfacet
  facet normal -0 0 1
    outer loop
      vertex -4.25 4.25 1
      vertex -3.25 3.25 1
      vertex 4.25 4.25 1
    endloop
  endfacet
  facet normal 0 0 1
    outer loop
      vertex -4.25 2.5 1
      vertex -3.25 3.25 1
      vertex -4.25 4.25 1
    endloop
  endfacet
  facet normal 0 0 1
    outer loop
      vertex -3.25 3.25 1
      vertex -4.25 2.5 1
      vertex -3.25 2.5 1
    endloop
  endfacet
  facet normal -0 0 1
    outer loop
      vertex 3.25 -3.25 1
      vertex 4.25 -4.25 1
      vertex 3.25 3.25 1
    endloop
  endfacet
  facet normal -0 0 1
    outer loop
      vertex -3.25 -3.25 1
      vertex 4.25 -4.25 1
      vertex 3.25 -3.25 1
    endloop
  endfacet
  facet normal 0 0 1
    outer loop
      vertex -3.25 -3.25 1
      vertex -4.25 -4.25 1
      vertex 4.25 -4.25 1
    endloop
  endfacet
  facet normal 0 0 1
    outer loop
      vertex -4.25 -4.25 1
      vertex -3.25 -3.25 1
      vertex -4.25 -2.5 1
    endloop
  endfacet
  facet normal 1 -0 0
    outer loop
      vertex 4.25 -4.25 1
      vertex 4.25 4.25 0
      vertex 4.25 4.25 1
    endloop
  endfacet
  facet normal 1 0 0
    outer loop
      vertex 4.25 4.25 0
      vertex 4.25 -4.25 1
      vertex 4.25 -4.25 0
    endloop
  endfacet
  facet normal 0 0 -1
    outer loop
      vertex -3.25 2.5 0
      vertex -4.25 2.5 0
      vertex -3.25 3.25 0
    endloop
  endfacet
  facet normal 0 0 -1
    outer loop
      vertex 4.25 -4.25 0
      vertex 3.25 -3.25 0
      vertex 4.25 4.25 0
    endloop
  endfacet
  facet normal 0 0 -1
    outer loop
      vertex 4.25 -4.25 0
      vertex -3.25 -3.25 0
      vertex 3.25 -3.25 0
    endloop
  endfacet
  facet normal 0 0 -1
    outer loop
      vertex -4.25 -4.25 0
      vertex -3.25 -3.25 0
      vertex 4.25 -4.25 0
    endloop
  endfacet
  facet normal 0 0 -1
    outer loop
      vertex -4.25 -2.5 0
      vertex -3.25 -3.25 0
      vertex -4.25 -4.25 0
    endloop
  endfacet
  facet normal 0 0 -1
    outer loop
      vertex -3.25 -3.25 0
      vertex -4.25 -2.5 0
      vertex -3.25 -2.5 0
    endloop
  endfacet
  facet normal 0 0 -1
    outer loop
      vertex 3.25 3.25 0
      vertex 4.25 4.25 0
      vertex 3.25 -3.25 0
    endloop
  endfacet
  facet normal 0 0 -1
    outer loop
      vertex -3.25 3.25 0
      vertex 4.25 4.25 0
      vertex 3.25 3.25 0
    endloop
  endfacet
  facet normal 0 0 -1
    outer loop
      vertex -3.25 3.25 0
      vertex -4.25 4.25 0
      vertex 4.25 4.25 0
    endloop
  endfacet
  facet normal 0 0 -1
    outer loop
      vertex -4.25 4.25 0
      vertex -3.25 3.25 0
      vertex -4.25 2.5 0
    endloop
  endfacet
  facet normal 0 -1 0
    outer loop
      vertex -4.25 -4.25 0
      vertex 4.25 -4.25 1
      vertex -4.25 -4.25 1
    endloop
  endfacet
  facet normal 0 -1 -0
    outer loop
      vertex 4.25 -4.25 1
      vertex -4.25 -4.25 0
      vertex 4.25 -4.25 0
    endloop
  endfacet
  facet normal 0 1 -0
    outer loop
      vertex 4.25 4.25 0
      vertex -4.25 4.25 1
      vertex 4.25 4.25 1
    endloop
  endfacet
  facet normal 0 1 0
    outer loop
      vertex -4.25 4.25 1
      vertex 4.25 4.25 0
      vertex -4.25 4.25 0
    endloop
  endfacet
  facet normal 1 -0 0
    outer loop
      vertex -3.25 -3.25 1
      vertex -3.25 -2.5 0
      vertex -3.25 -2.5 1
    endloop
  endfacet
  facet normal 1 0 0
    outer loop
      vertex -3.25 -2.5 0
      vertex -3.25 -3.25 1
      vertex -3.25 -3.25 0
    endloop
  endfacet
  facet normal 1 -0 0
    outer loop
      vertex -3.25 2.5 1
      vertex -3.25 3.25 0
      vertex -3.25 3.25 1
    endloop
  endfacet
  facet normal 1 0 0
    outer loop
      vertex -3.25 3.25 0
      vertex -3.25 2.5 1
      vertex -3.25 2.5 0
    endloop
  endfacet
  facet normal -1 0 0
    outer loop
      vertex 3.25 -3.25 0
      vertex 3.25 3.25 1
      vertex 3.25 3.25 0
    endloop
  endfacet
  facet normal -1 -0 0
    outer loop
      vertex 3.25 3.25 1
      vertex 3.25 -3.25 0
      vertex 3.25 -3.25 1
    endloop
  endfacet
  facet normal 0 -1 0
    outer loop
      vertex -3.25 3.25 0
      vertex 3.25 3.25 1
      vertex -3.25 3.25 1
    endloop
  endfacet
  facet normal 0 -1 -0
    outer loop
      vertex 3.25 3.25 1
      vertex -3.25 3.25 0
      vertex 3.25 3.25 0
    endloop
  endfacet
  facet normal 0 1 -0
    outer loop
      vertex 3.25 -3.25 0
      vertex -3.25 -3.25 1
      vertex 3.25 -3.25 1
    endloop
  endfacet
  facet normal 0 1 0
    outer loop
      vertex -3.25 -3.25 1
      vertex 3.25 -3.25 0
      vertex -3.25 -3.25 0
    endloop
  endfacet
  facet normal 0 -1 0
    outer loop
      vertex -4.25 2.5 0
      vertex -3.25 2.5 1
      vertex -4.25 2.5 1
    endloop
  endfacet
  facet normal 0 -1 -0
    outer loop
      vertex -3.25 2.5 1
      vertex -4.25 2.5 0
      vertex -3.25 2.5 0
    endloop
  endfacet
  facet normal 0 1 -0
    outer loop
      vertex -3.25 -2.5 0
      vertex -4.25 -2.5 1
      vertex -3.25 -2.5 1
    endloop
  endfacet
  facet normal 0 1 0
    outer loop
      vertex -4.25 -2.5 1
      vertex -3.25 -2.5 0
      vertex -4.25 -2.5 0
    endloop
  endfacet
endsolid OpenSCAD_Model
