solid OpenSCAD_Model
  facet normal -1 0 0
    outer loop
      vertex -4.9 -4.9 0
      vertex -4.9 -3.65 1
      vertex -4.9 -3.65 0
    endloop
  endfacet
  facet normal -1 -0 0
    outer loop
      vertex -4.9 -3.65 1
      vertex -4.9 -4.9 0
      vertex -4.9 -4.9 1
    endloop
  endfacet
  facet normal -1 0 0
    outer loop
      vertex -4.9 3.65 0
      vertex -4.9 4.9 1
      vertex -4.9 4.9 0
    endloop
  endfacet
  facet normal -1 -0 0
    outer loop
      vertex -4.9 4.9 1
      vertex -4.9 3.65 0
      vertex -4.9 3.65 1
    endloop
  endfacet
  facet normal 0 0 1
    outer loop
      vertex -3.9 -3.65 1
      vertex -4.9 -3.65 1
      vertex -3.9 -3.9 1
    endloop
  endfacet
  facet normal 0 0 1
    outer loop
      vertex 4.9 4.9 1
      vertex 3.9 3.9 1
      vertex 4.9 -4.9 1
    endloop
  endfacet
  facet normal 0 0 1
    outer loop
      vertex 4.9 4.9 1
      vertex -3.9 3.9 1
      vertex 3.9 3.9 1
    endloop
  endfacet
  facet normal -0 0 1
    outer loop
      vertex -4.9 4.9 1
      vertex -3.9 3.9 1
      vertex 4.9 4.9 1
    endloop
  endfacet
  facet normal 0 0 1
    outer loop
      vertex -4.9 3.65 1
      vertex -3.9 3.9 1
      vertex -4.9 4.9 1
    endloop
  endfacet
  facet normal 0 0 1
    outer loop
      vertex -3.9 3.9 1
      vertex -4.9 3.65 1
      vertex -3.9 3.65 1
    endloop
  endfacet
  facet normal -0 0 1
    outer loop
      vertex 3.9 -3.9 1
      vertex 4.9 -4.9 1
      vertex 3.9 3.9 1
    endloop
  endfacet
  facet normal -0 0 1
    outer loop
      vertex -3.9 -3.9 1
      vertex 4.9 -4.9 1
      vertex 3.9 -3.9 1
    endloop
  endfacet
  facet normal 0 0 1
    outer loop
      vertex -3.9 -3.9 1
      vertex -4.9 -4.9 1
      vertex 4.9 -4.9 1
    endloop
  endfacet
  facet normal 0 0 1
    outer loop
      vertex -4.9 -4.9 1
      vertex -3.9 -3.9 1
      vertex -4.9 -3.65 1
    endloop
  endfacet
  facet normal 1 -0 0
    outer loop
      vertex 4.9 -4.9 1
      vertex 4.9 4.9 0
      vertex 4.9 4.9 1
    endloop
  endfacet
  facet normal 1 0 0
    outer loop
      vertex 4.9 4.9 0
      vertex 4.9 -4.9 1
      vertex 4.9 -4.9 0
    endloop
  endfacet
  facet normal 0 1 -0
    outer loop
      vertex 4.9 4.9 0
      vertex -4.9 4.9 1
      vertex 4.9 4.9 1
    endloop
  endfacet
  facet normal 0 1 0
    outer loop
      vertex -4.9 4.9 1
      vertex 4.9 4.9 0
      vertex -4.9 4.9 0
    endloop
  endfacet
  facet normal 0 0 -1
    outer loop
      vertex -3.9 3.65 0
      vertex -4.9 3.65 0
      vertex -3.9 3.9 0
    endloop
  endfacet
  facet normal 0 0 -1
    outer loop
      vertex 4.9 -4.9 0
      vertex 3.9 -3.9 0
      vertex 4.9 4.9 0
    endloop
  endfacet
  facet normal 0 0 -1
    outer loop
      vertex 4.9 -4.9 0
      vertex -3.9 -3.9 0
      vertex 3.9 -3.9 0
    endloop
  endfacet
  facet normal 0 0 -1
    outer loop
      vertex -4.9 -4.9 0
      vertex -3.9 -3.9 0
      vertex 4.9 -4.9 0
    endloop
  endfacet
  facet normal 0 0 -1
    outer loop
      vertex -4.9 -3.65 0
      vertex -3.9 -3.9 0
      vertex -4.9 -4.9 0
    endloop
  endfacet
  facet normal 0 0 -1
    outer loop
      vertex -3.9 -3.9 0
      vertex -4.9 -3.65 0
      vertex -3.9 -3.65 0
    endloop
  endfacet
  facet normal 0 0 -1
    outer loop
      vertex 3.9 3.9 0
      vertex 4.9 4.9 0
      vertex 3.9 -3.9 0
    endloop
  endfacet
  facet normal 0 0 -1
    outer loop
      vertex -3.9 3.9 0
      vertex 4.9 4.9 0
      vertex 3.9 3.9 0
    endloop
  endfacet
  facet normal 0 0 -1
    outer loop
      vertex -3.9 3.9 0
      vertex -4.9 4.9 0
      vertex 4.9 4.9 0
    endloop
  endfacet
  facet normal 0 0 -1
    outer loop
      vertex -4.9 4.9 0
      vertex -3.9 3.9 0
      vertex -4.9 3.65 0
    endloop
  endfacet
  facet normal 0 -1 0
    outer loop
      vertex -4.9 -4.9 0
      vertex 4.9 -4.9 1
      vertex -4.9 -4.9 1
    endloop
  endfacet
  facet normal 0 -1 -0
    outer loop
      vertex 4.9 -4.9 1
      vertex -4.9 -4.9 0
      vertex 4.9 -4.9 0
    endloop
  endfacet
  facet normal 1 -0 0
    outer loop
      vertex -3.9 -3.9 1
      vertex -3.9 -3.65 0
      vertex -3.9 -3.65 1
    endloop
  endfacet
  facet normal 1 0 0
    outer loop
      vertex -3.9 -3.65 0
      vertex -3.9 -3.9 1
      vertex -3.9 -3.9 0
    endloop
  endfacet
  facet normal 1 -0 0
    outer loop
      vertex -3.9 3.65 1
      vertex -3.9 3.9 0
      vertex -3.9 3.9 1
    endloop
  endfacet
  facet normal 1 0 0
    outer loop
      vertex -3.9 3.9 0
      vertex -3.9 3.65 1
      vertex -3.9 3.65 0
    endloop
  endfacet
  facet normal -1 0 0
    outer loop
      vertex 3.9 -3.9 0
      vertex 3.9 3.9 1
      vertex 3.9 3.9 0
    endloop
  endfacet
  facet normal -1 -0 0
    outer loop
      vertex 3.9 3.9 1
      vertex 3.9 -3.9 0
      vertex 3.9 -3.9 1
    endloop
  endfacet
  facet normal 0 -1 0
    outer loop
      vertex -3.9 3.9 0
      vertex 3.9 3.9 1
      vertex -3.9 3.9 1
    endloop
  endfacet
  facet normal 0 -1 -0
    outer loop
      vertex 3.9 3.9 1
      vertex -3.9 3.9 0
      vertex 3.9 3.9 0
    endloop
  endfacet
  facet normal 0 1 -0
    outer loop
      vertex 3.9 -3.9 0
      vertex -3.9 -3.9 1
      vertex 3.9 -3.9 1
    endloop
  endfacet
  facet normal 0 1 0
    outer loop
      vertex -3.9 -3.9 1
      vertex 3.9 -3.9 0
      vertex -3.9 -3.9 0
    endloop
  endfacet
  facet normal 0 -1 0
    outer loop
      vertex -4.9 3.65 0
      vertex -3.9 3.65 1
      vertex -4.9 3.65 1
    endloop
  endfacet
  facet normal 0 -1 -0
    outer loop
      vertex -3.9 3.65 1
      vertex -4.9 3.65 0
      vertex -3.9 3.65 0
    endloop
  endfacet
  facet normal 0 1 -0
    outer loop
      vertex -3.9 -3.65 0
      vertex -4.9 -3.65 1
      vertex -3.9 -3.65 1
    endloop
  endfacet
  facet normal 0 1 0
    outer loop
      vertex -4.9 -3.65 1
      vertex -3.9 -3.65 0
      vertex -4.9 -3.65 0
    endloop
  endfacet
endsolid OpenSCAD_Model
